# xmcd CD database file
#
# Track frame offsets:
#	150
#	26730
#	43332
#	77913
#	94015
#	128906
#	144548
#	176382
#	191969
#	208157
#	224861
#	240107
#	256062
#	283757
#
# Disc length: 3835 seconds
#
# Revision: 9
# Processed by: cddbd v1.5.2PL0 Copyright (c) Steve Scherf et al.
# Submitted via: CDex 1.77
#
DISCID=d60ef90e
DTITLE=Lester Young - Lester Young with The Oscar Peterson Trio
DYEAR=1952
DGENRE=Jazz
TTITLE0=Ad Lib Blues
TTITLE1=I Can't Get Started
TTITLE2=Just You, Just Me
TTITLE3=Almost Like Being In Love
TTITLE4=Tea For Two
TTITLE5=There Will Never Be Another You
TTITLE6=(Back Home Again In) Indiana
TTITLE7=On The Sunny Side Of The Street
TTITLE8=Star Dust
TTITLE9=I'm Confessin'
TTITLE10=I Can't Give You Anything But Love
TTITLE11=These Foolish Things
TTITLE12=(It Takes) Two To Tango
TTITLE13=I Can't Get Started [false start]
EXTD=Verve\n521 451 2\ngatefold digipak\n YEAR: 1952
EXTT0=
EXTT1=
EXTT2=
EXTT3=
EXTT4=
EXTT5=
EXTT6=
EXTT7=
EXTT8=
EXTT9=
EXTT10=
EXTT11=
EXTT12=
EXTT13=\n
PLAYORDER=
